<svg xmlns:xlink="http://www.w3.org/1999/xlink" xmlns="http://www.w3.org/2000/svg" viewBox="0 0 800 800">
    <defs>
        <style>
            .cls-1{fill:url(#linear-gradient);}.cls-2{fill:url(#linear-gradient-2);}.cls-3{fill:url(#linear-gradient-3);}.cls-4{fill:url(#linear-gradient-4);}.cls-5{fill:url(#linear-gradient-5);}.cls-6{fill:url(#linear-gradient-6);}.cls-7{fill:url(#linear-gradient-7);}.cls-8{fill:#fff;}
        </style>
        <linearGradient id="linear-gradient" x1="206.6" y1="593.4" x2="614.35" y2="185.65"
                        gradientUnits="userSpaceOnUse">
            <stop offset="0" stop-color="#111728"/>
            <stop offset="1" stop-color="#162b3c"/>
        </linearGradient>
        <linearGradient id="linear-gradient-2" x1="604.57" y1="504.04" x2="33.32" y2="-150.04"
                        gradientTransform="matrix(1, 0, 0, -1, 102.36, 559.06)" gradientUnits="userSpaceOnUse">
            <stop offset="0" stop-color="#3dbba6"/>
            <stop offset="1" stop-color="#0090cd"/>
        </linearGradient>
        <linearGradient id="linear-gradient-3" x1="465.84" y1="624.82" x2="-106.16" y2="-30.11"
                        xlink:href="#linear-gradient-2"/>
        <linearGradient id="linear-gradient-4" x1="586.2" y1="517.72" x2="16" y2="-135.16"
                        xlink:href="#linear-gradient-2"/>
        <linearGradient id="linear-gradient-5" x1="619.71" y1="489.73" x2="49.09" y2="-163.62"
                        xlink:href="#linear-gradient-2"/>
        <linearGradient id="linear-gradient-6" x1="412.71" y1="678.94" x2="-165.04" y2="17.42"
                        xlink:href="#linear-gradient-2"/>
        <linearGradient id="linear-gradient-7" x1="696.4" y1="427.68" x2="120.37" y2="-231.87"
                        xlink:href="#linear-gradient-2"/>
    </defs>
    <g id="Backgrounds">
        <rect class="cls-1" width="800" height="800" rx="400"/>
    </g>
    <g id="Graphics">
        <g id="Logo">
            <path class="cls-2"
                  d="M326.83,121.94a25,25,0,0,0,26.08-24.85,29,29,0,0,0-1.09-7.46l43.84-33.57a7.69,7.69,0,0,1,9.48,0l248.7,190.25a7.9,7.9,0,0,1,3.11,6.22V399.89a7.77,7.77,0,0,1-7.78,7.77H618.09A23.32,23.32,0,0,0,594.77,431V586.41a7.77,7.77,0,0,1-7.77,7.77H478.19a7.77,7.77,0,0,1-7.77-7.77V535l-15.54,8.55v42.9a23.32,23.32,0,0,0,23.31,23.32H587a23.32,23.32,0,0,0,23.32-23.32V431a7.77,7.77,0,0,1,7.77-7.77h31.08a23.32,23.32,0,0,0,23.32-23.31V252.38a23.42,23.42,0,0,0-9.17-18.5L414.46,43.78a23.33,23.33,0,0,0-28.29,0L342.65,77a24.85,24.85,0,1,0-15.82,44.9Zm.59-33.9a12.41,12.41,0,0,1,2.33.31,9.34,9.34,0,0,1,7,9v.15A9.33,9.33,0,1,1,327.42,88Z"/>
            <path class="cls-3"
                  d="M208.64,277.67,384.9,142.13a25.28,25.28,0,0,0,12.75,3.58,24.63,24.63,0,1,0-23-15.24L199.15,265.24c-5.75,4.35-10.07,18.5-10.07,18.5v69.52a23.32,23.32,0,0,0,23.32,23.31h49.74V361H213.3s-7.77-2.84-7.12-7.19v-70.1A5.59,5.59,0,0,1,208.64,277.67ZM404.23,114.5a9,9,0,0,1,0,12.42l-.15.13-2.33,1.87a10.06,10.06,0,0,1-4.35,1.09,9.36,9.36,0,0,1-9.33-9.33v-.93a9.42,9.42,0,0,1,11-8.25A9.28,9.28,0,0,1,404.23,114.5Z"/>
            <path class="cls-4"
                  d="M339.08,639.26a24.83,24.83,0,0,0-23.63,17.1H151.78a7.77,7.77,0,0,1-7.78-7.77V431a7.77,7.77,0,0,1,7.78-7.77H262.14V407.66H151.78A23.32,23.32,0,0,0,128.46,431V648.59a23.32,23.32,0,0,0,23.32,23.31H315.45a24.87,24.87,0,1,0,23.63-32.64Zm-5.78,33.22a9.29,9.29,0,0,1,0-15.54,9.33,9.33,0,1,1,0,15.54Z"/>
            <path class="cls-5"
                  d="M501.64,173.53a24.87,24.87,0,1,0,13.52,45.7L591,277.67c1.87,1.4,2.21,6.22,2.21,6.22v69.37a7.77,7.77,0,0,1-7.77,7.77H538.81v15.54h47.54s23.31-9.68,24-22.58v-70.1a26.29,26.29,0,0,0-9.83-18.5L525,207.1a22.74,22.74,0,0,0,1.56-8.7A25,25,0,0,0,501.64,173.53ZM511,198.4a9.36,9.36,0,0,1-9.32,9.33,5.18,5.18,0,0,1-1.56-.16,9.31,9.31,0,0,1,1.56-18.5,9.2,9.2,0,0,1,9,7A11.64,11.64,0,0,1,511,198.4Z"/>
            <path class="cls-6"
                  d="M161.27,354.74A25.07,25.07,0,0,0,144,330.88V252.53a8,8,0,0,1,3.14-6.28L215,194.44a25.58,25.58,0,0,0,21.8,3.75,24.69,24.69,0,0,0,17.28-17.76,25.12,25.12,0,1,0-48.84-11.68,24,24,0,0,0,.65,13l-68.14,52.13a23.63,23.63,0,0,0-9.26,18.68v78.35a25.1,25.1,0,1,0,32.81,23.86ZM226.2,165.33a7.83,7.83,0,0,1,1.87-.15,10,10,0,0,1,5.13,1.55,9.32,9.32,0,0,1,3.73,5,8.88,8.88,0,0,1,.46,2.8,7.65,7.65,0,0,1-.31,2,9.3,9.3,0,0,1-9,7.31h-.39a9.15,9.15,0,0,1-7.85-13.52A9.41,9.41,0,0,1,226.2,165.33ZM126.25,353.84a9.37,9.37,0,1,1,1.56,5.13A9.14,9.14,0,0,1,126.25,353.84Z"/>
            <path class="cls-7"
                  d="M666.91,451.36a24.82,24.82,0,0,0-10,48.47V651.18a5.18,5.18,0,0,1-5.18,5.18H413.43a5.18,5.18,0,0,1-5.18-5.18V609.73a15.55,15.55,0,0,0-15.55-15.55H214a7.77,7.77,0,0,1-7.77-7.77v-87a24.94,24.94,0,1,0-15.55.46v94.35a15.55,15.55,0,0,0,15.55,15.55H387.52a5.18,5.18,0,0,1,5.18,5.18v41.45a15.55,15.55,0,0,0,15.55,15.54H649.17a23.32,23.32,0,0,0,23.32-23.31V499.37a24.84,24.84,0,0,0-5.58-48ZM190,470.42a8.94,8.94,0,0,1,7-3.11,9.28,9.28,0,0,1,8.55,5.59,9.42,9.42,0,0,1,0,7.46A9.27,9.27,0,0,1,197,486a9.36,9.36,0,0,1-7-15.54Zm481.86,9.94a9.26,9.26,0,0,1-8.55,5.6,9.47,9.47,0,0,1-7-3.11,9.42,9.42,0,0,1,0-12.43,8.92,8.92,0,0,1,7-3.11,9.32,9.32,0,0,1,8.55,13.05Z"/>
            <path class="cls-8"
                  d="M308.44,508.74l92.89,50.64,52.66-29,15.53-8.54,23.3-12.9a59,59,0,0,0,30.45-51.72V264.08L400.55,239.85,277.68,264.08V457A59,59,0,0,0,308.44,508.74ZM349.18,387a15.26,15.26,0,0,1,14-15.24V359.81c0-18.45,15-35.69,33.34-37.24A36.51,36.51,0,0,1,436.23,359v12.78c7.73.31,14,7,14,15.24v49A15.27,15.27,0,0,1,435,451.18H364.41A15.28,15.28,0,0,1,349.18,436Z"/>
            <path class="cls-8"
                  d="M416,358.23a17.21,17.21,0,0,0-18.57-17.35c-8.95.76-15.63,8.65-15.63,17.63v11.84H416Z"/>
        </g>
    </g>
</svg>
